<svg xmlns="http://www.w3.org/2000/svg" xmlns:xlink="http://www.w3.org/1999/xlink" width="20" zoomAndPan="magnify" viewBox="0 0 30 30.000001" height="20" preserveAspectRatio="xMidYMid meet" version="1.0"><defs><clipPath id="id1"><path d="M 19 5.261719 L 27.582031 5.261719 L 27.582031 23.40625 L 19 23.40625 Z M 19 5.261719 " clip-rule="nonzero"/></clipPath><clipPath id="id2"><path d="M 2.179688 5.261719 L 11 5.261719 L 11 23.40625 L 2.179688 23.40625 Z M 2.179688 5.261719 " clip-rule="nonzero"/></clipPath><clipPath id="id3"><path d="M 10 5.261719 L 20 5.261719 L 20 23.40625 L 10 23.40625 Z M 10 5.261719 " clip-rule="nonzero"/></clipPath></defs><g clip-path="url(#id1)"><path fill="rgb(92.939758%, 16.079712%, 22.349548%)" d="M 27.574219 20.617188 C 27.574219 22.15625 26.3125 23.40625 24.753906 23.40625 L 19.113281 23.40625 L 19.113281 5.261719 L 24.753906 5.261719 C 26.3125 5.261719 27.574219 6.511719 27.574219 8.054688 Z M 27.574219 20.617188 " fill-opacity="1" fill-rule="nonzero"/></g><g clip-path="url(#id2)"><path fill="rgb(0%, 14.118958%, 58.428955%)" d="M 5.011719 5.261719 C 3.453125 5.261719 2.191406 6.511719 2.191406 8.054688 L 2.191406 20.617188 C 2.191406 22.15625 3.453125 23.40625 5.011719 23.40625 L 10.652344 23.40625 L 10.652344 5.261719 Z M 5.011719 5.261719 " fill-opacity="1" fill-rule="nonzero"/></g><g clip-path="url(#id3)"><path fill="rgb(93.328857%, 93.328857%, 93.328857%)" d="M 10.652344 5.261719 L 19.113281 5.261719 L 19.113281 23.40625 L 10.652344 23.40625 Z M 10.652344 5.261719 " fill-opacity="1" fill-rule="nonzero"/></g></svg>