<svg id="visual" viewBox="0 0 1920 1080" width="1920" height="1080" xmlns="http://www.w3.org/2000/svg" xmlns:xlink="http://www.w3.org/1999/xlink" version="1.1"><rect x="0" y="0" width="1920" height="1080" fill="#fab27e"></rect><defs><linearGradient id="grad1_0" x1="43.8%" y1="100%" x2="100%" y2="0%"><stop offset="14.444444444444446%" stop-color="#fd6a02" stop-opacity="1"></stop><stop offset="85.55555555555554%" stop-color="#fd6a02" stop-opacity="1"></stop></linearGradient></defs><defs><linearGradient id="grad1_1" x1="43.8%" y1="100%" x2="100%" y2="0%"><stop offset="14.444444444444446%" stop-color="#fd6a02" stop-opacity="1"></stop><stop offset="85.55555555555554%" stop-color="#fd9148" stop-opacity="1"></stop></linearGradient></defs><defs><linearGradient id="grad1_2" x1="43.8%" y1="100%" x2="100%" y2="0%"><stop offset="14.444444444444446%" stop-color="#fab27e" stop-opacity="1"></stop><stop offset="85.55555555555554%" stop-color="#fd9148" stop-opacity="1"></stop></linearGradient></defs><defs><linearGradient id="grad2_0" x1="0%" y1="100%" x2="56.3%" y2="0%"><stop offset="14.444444444444446%" stop-color="#fd6a02" stop-opacity="1"></stop><stop offset="85.55555555555554%" stop-color="#fd6a02" stop-opacity="1"></stop></linearGradient></defs><defs><linearGradient id="grad2_1" x1="0%" y1="100%" x2="56.3%" y2="0%"><stop offset="14.444444444444446%" stop-color="#fd9148" stop-opacity="1"></stop><stop offset="85.55555555555554%" stop-color="#fd6a02" stop-opacity="1"></stop></linearGradient></defs><defs><linearGradient id="grad2_2" x1="0%" y1="100%" x2="56.3%" y2="0%"><stop offset="14.444444444444446%" stop-color="#fd9148" stop-opacity="1"></stop><stop offset="85.55555555555554%" stop-color="#fab27e" stop-opacity="1"></stop></linearGradient></defs><g transform="translate(1920, 1080)"><path d="M-972 0C-965.1 -134 -958.2 -268 -898 -372C-837.8 -475.9 -724.3 -549.8 -627.9 -627.9C-531.5 -706 -452.3 -788.2 -350.5 -846.3C-248.7 -904.3 -124.4 -938.2 0 -972L0 0Z" fill="#fca263"></path><path d="M-648 0C-643.4 -89.3 -638.8 -178.7 -598.7 -248C-558.5 -317.3 -482.9 -366.6 -418.6 -418.6C-354.4 -470.7 -301.6 -525.5 -233.7 -564.2C-165.8 -602.9 -82.9 -625.4 0 -648L0 0Z" fill="#fd7e2c"></path><path d="M-324 0C-321.7 -44.7 -319.4 -89.3 -299.3 -124C-279.3 -158.6 -241.4 -183.3 -209.3 -209.3C-177.2 -235.3 -150.8 -262.7 -116.8 -282.1C-82.9 -301.4 -41.5 -312.7 0 -324L0 0Z" fill="#fd6a02"></path></g><g transform="translate(0, 0)"><path d="M972 0C974.8 143.3 977.6 286.6 898 372C818.4 457.3 656.3 484.7 557.9 557.9C459.5 631.1 424.9 750.2 342.5 826.9C260.1 903.5 130.1 937.8 0 972L0 0Z" fill="#fca263"></path><path d="M648 0C649.9 95.5 651.8 191.1 598.7 248C545.6 304.9 437.5 323.1 371.9 371.9C306.4 420.8 283.2 500.1 228.3 551.2C173.4 602.4 86.7 625.2 0 648L0 0Z" fill="#fd7e2c"></path><path d="M324 0C324.9 47.8 325.9 95.5 299.3 124C272.8 152.4 218.8 161.6 186 186C153.2 210.4 141.6 250.1 114.2 275.6C86.7 301.2 43.4 312.6 0 324L0 0Z" fill="#fd6a02"></path></g></svg>