<svg id="visual" viewBox="0 0 1920 1080" width="1920" height="1080" xmlns="http://www.w3.org/2000/svg" xmlns:xlink="http://www.w3.org/1999/xlink" version="1.1"><rect x="0" y="0" width="1920" height="1080" fill="#4865a8"></rect><defs><linearGradient id="grad1_0" x1="43.8%" y1="100%" x2="100%" y2="0%"><stop offset="14.444444444444446%" stop-color="#27417d" stop-opacity="1"></stop><stop offset="85.55555555555554%" stop-color="#27417d" stop-opacity="1"></stop></linearGradient></defs><defs><linearGradient id="grad1_1" x1="43.8%" y1="100%" x2="100%" y2="0%"><stop offset="14.444444444444446%" stop-color="#27417d" stop-opacity="1"></stop><stop offset="85.55555555555554%" stop-color="#4865a8" stop-opacity="1"></stop></linearGradient></defs><defs><linearGradient id="grad2_0" x1="0%" y1="100%" x2="56.3%" y2="0%"><stop offset="14.444444444444446%" stop-color="#27417d" stop-opacity="1"></stop><stop offset="85.55555555555554%" stop-color="#27417d" stop-opacity="1"></stop></linearGradient></defs><defs><linearGradient id="grad2_1" x1="0%" y1="100%" x2="56.3%" y2="0%"><stop offset="14.444444444444446%" stop-color="#4865a8" stop-opacity="1"></stop><stop offset="85.55555555555554%" stop-color="#27417d" stop-opacity="1"></stop></linearGradient></defs><g transform="translate(1920, 1080)"><path d="M-972 0C-958.3 -82.5 -944.7 -164.9 -920.5 -246.7C-896.4 -328.4 -861.7 -409.4 -801.9 -463C-742.2 -516.6 -657.3 -542.8 -604.6 -604.6C-551.9 -666.3 -531.3 -763.5 -477.5 -827.1C-423.7 -890.6 -336.7 -920.3 -251.6 -938.9C-166.5 -957.4 -83.2 -964.7 0 -972L0 0Z" fill="#385392"></path><path d="M-486 0C-479.2 -41.2 -472.3 -82.5 -460.3 -123.3C-448.2 -164.2 -430.9 -204.7 -401 -231.5C-371.1 -258.3 -328.6 -271.4 -302.3 -302.3C-275.9 -333.2 -265.6 -381.8 -238.8 -413.5C-211.9 -445.3 -168.3 -460.2 -125.8 -469.4C-83.2 -478.7 -41.6 -482.4 0 -486L0 0Z" fill="#27417d"></path></g><g transform="translate(0, 0)"><path d="M972 0C969 90.5 965.9 180.9 917.6 245.9C869.3 310.9 775.7 350.3 739.6 427C703.4 503.7 724.8 617.5 687.3 687.3C649.8 757.1 553.6 783 472 817.5C390.4 852.1 323.4 895.3 247.2 922.5C170.9 949.7 85.5 960.8 0 972L0 0Z" fill="#385392"></path><path d="M486 0C484.5 45.2 483 90.5 458.8 122.9C434.7 155.4 387.9 175.2 369.8 213.5C351.7 251.8 362.4 308.7 343.7 343.7C324.9 378.6 276.8 391.5 236 408.8C195.2 426 161.7 447.6 123.6 461.2C85.5 474.8 42.7 480.4 0 486L0 0Z" fill="#27417d"></path></g></svg>