<svg id="visual" viewBox="0 0 1920 1080" width="1920" height="1080" xmlns="http://www.w3.org/2000/svg" xmlns:xlink="http://www.w3.org/1999/xlink" version="1.1"><rect x="0" y="0" width="1920" height="1080" fill="#d5d5d5"></rect><defs><linearGradient id="grad1_0" x1="43.8%" y1="100%" x2="100%" y2="0%"><stop offset="14.444444444444446%" stop-color="#f9f6ee" stop-opacity="1"></stop><stop offset="85.55555555555554%" stop-color="#f9f6ee" stop-opacity="1"></stop></linearGradient></defs><defs><linearGradient id="grad1_1" x1="43.8%" y1="100%" x2="100%" y2="0%"><stop offset="14.444444444444446%" stop-color="#f9f6ee" stop-opacity="1"></stop><stop offset="85.55555555555554%" stop-color="#e7e5e1" stop-opacity="1"></stop></linearGradient></defs><defs><linearGradient id="grad1_2" x1="43.8%" y1="100%" x2="100%" y2="0%"><stop offset="14.444444444444446%" stop-color="#d5d5d5" stop-opacity="1"></stop><stop offset="85.55555555555554%" stop-color="#e7e5e1" stop-opacity="1"></stop></linearGradient></defs><defs><linearGradient id="grad2_0" x1="0%" y1="100%" x2="56.3%" y2="0%"><stop offset="14.444444444444446%" stop-color="#f9f6ee" stop-opacity="1"></stop><stop offset="85.55555555555554%" stop-color="#f9f6ee" stop-opacity="1"></stop></linearGradient></defs><defs><linearGradient id="grad2_1" x1="0%" y1="100%" x2="56.3%" y2="0%"><stop offset="14.444444444444446%" stop-color="#e7e5e1" stop-opacity="1"></stop><stop offset="85.55555555555554%" stop-color="#f9f6ee" stop-opacity="1"></stop></linearGradient></defs><defs><linearGradient id="grad2_2" x1="0%" y1="100%" x2="56.3%" y2="0%"><stop offset="14.444444444444446%" stop-color="#e7e5e1" stop-opacity="1"></stop><stop offset="85.55555555555554%" stop-color="#d5d5d5" stop-opacity="1"></stop></linearGradient></defs><g transform="translate(1920, 1080)"><path d="M-972 0C-959.6 -129.3 -947.2 -258.5 -898 -372C-848.8 -485.4 -762.9 -583 -670.3 -670.3C-577.8 -757.7 -478.7 -834.7 -365.8 -883.2C-253 -931.8 -126.5 -951.9 0 -972L0 0Z" fill="#dedddb"></path><path d="M-648 0C-639.7 -86.2 -631.5 -172.4 -598.7 -248C-565.9 -323.6 -508.6 -388.7 -446.9 -446.9C-385.2 -505.1 -319.1 -556.4 -243.9 -588.8C-168.7 -621.2 -84.3 -634.6 0 -648L0 0Z" fill="#f0eee8"></path><path d="M-324 0C-319.9 -43.1 -315.7 -86.2 -299.3 -124C-282.9 -161.8 -254.3 -194.3 -223.4 -223.4C-192.6 -252.6 -159.6 -278.2 -121.9 -294.4C-84.3 -310.6 -42.2 -317.3 0 -324L0 0Z" fill="#f9f6ee"></path></g><g transform="translate(0, 0)"><path d="M972 0C911.9 111.7 851.7 223.4 802.9 332.6C754 441.7 716.3 548.3 649.1 649.1C581.9 750 485.1 845.1 372 898C258.8 950.9 129.4 961.4 0 972L0 0Z" fill="#dedddb"></path><path d="M648 0C607.9 74.5 567.8 148.9 535.2 221.7C502.6 294.5 477.6 365.5 432.7 432.7C387.9 500 323.4 563.4 248 598.7C172.6 633.9 86.3 641 0 648L0 0Z" fill="#f0eee8"></path><path d="M324 0C304 37.2 283.9 74.5 267.6 110.9C251.3 147.2 238.8 182.8 216.4 216.4C194 250 161.7 281.7 124 299.3C86.3 317 43.1 320.5 0 324L0 0Z" fill="#f9f6ee"></path></g></svg>