<svg id="visual" viewBox="0 0 1920 1080" width="1920" height="1080" xmlns="http://www.w3.org/2000/svg" xmlns:xlink="http://www.w3.org/1999/xlink" version="1.1"><rect x="0" y="0" width="1920" height="1080" fill="#363636"></rect><defs><linearGradient id="grad1_0" x1="43.8%" y1="0%" x2="100%" y2="100%"><stop offset="14.444444444444446%" stop-color="#222222" stop-opacity="1"></stop><stop offset="85.55555555555554%" stop-color="#222222" stop-opacity="1"></stop></linearGradient></defs><defs><linearGradient id="grad1_1" x1="43.8%" y1="0%" x2="100%" y2="100%"><stop offset="14.444444444444446%" stop-color="#222222" stop-opacity="1"></stop><stop offset="85.55555555555554%" stop-color="#363636" stop-opacity="1"></stop></linearGradient></defs><defs><linearGradient id="grad2_0" x1="0%" y1="0%" x2="56.3%" y2="100%"><stop offset="14.444444444444446%" stop-color="#222222" stop-opacity="1"></stop><stop offset="85.55555555555554%" stop-color="#222222" stop-opacity="1"></stop></linearGradient></defs><defs><linearGradient id="grad2_1" x1="0%" y1="0%" x2="56.3%" y2="100%"><stop offset="14.444444444444446%" stop-color="#363636" stop-opacity="1"></stop><stop offset="85.55555555555554%" stop-color="#222222" stop-opacity="1"></stop></linearGradient></defs><g transform="translate(1920, 0)"><path d="M0 972C-89.7 954.2 -179.4 936.4 -234 873.2C-288.5 810 -307.9 701.3 -388.5 672.9C-469.1 644.5 -610.9 696.4 -652 652C-693 607.6 -633.2 466.9 -678.1 391.5C-723 316.1 -872.5 305.9 -938.9 251.6C-1005.3 197.2 -988.7 98.6 -972 0L0 0Z" fill="#2c2c2c"></path><path d="M0 486C-44.9 477.1 -89.7 468.2 -117 436.6C-144.3 405 -153.9 350.7 -194.2 336.5C-234.6 322.2 -305.5 348.2 -326 326C-346.5 303.8 -316.6 233.5 -339 195.8C-361.5 158 -436.2 153 -469.4 125.8C-502.7 98.6 -494.3 49.3 -486 0L0 0Z" fill="#222222"></path></g><g transform="translate(0, 1080)"><path d="M0 -972C65.5 -884.6 131.1 -797.2 204.5 -763.1C277.9 -728.9 359.1 -748 416.5 -721.4C473.9 -694.8 507.5 -622.7 583.4 -583.4C659.2 -544 777.2 -537.6 841.8 -486C906.3 -434.4 917.4 -337.8 930.2 -249.2C943 -160.7 957.5 -80.4 972 0L0 0Z" fill="#2c2c2c"></path><path d="M0 -486C32.8 -442.3 65.5 -398.6 102.2 -381.5C138.9 -364.5 179.5 -374 208.2 -360.7C237 -347.4 253.8 -311.3 291.7 -291.7C329.6 -272 388.6 -268.8 420.9 -243C453.2 -217.2 458.7 -168.9 465.1 -124.6C471.5 -80.4 478.7 -40.2 486 0L0 0Z" fill="#222222"></path></g></svg>