<svg id="visual" viewBox="0 0 1920 100" width="1920" height="100" xmlns="http://www.w3.org/2000/svg" xmlns:xlink="http://www.w3.org/1999/xlink" version="1.1"><path d="M0 21L40 33.2C80 45.3 160 69.7 240 71.2C320 72.7 400 51.3 480 49.3C560 47.3 640 64.7 720 71.7C800 78.7 880 75.3 960 74.8C1040 74.3 1120 76.7 1200 69.3C1280 62 1360 45 1440 48.2C1520 51.3 1600 74.7 1680 71C1760 67.3 1840 36.7 1880 21.3L1920 6L1920 101L1880 101C1840 101 1760 101 1680 101C1600 101 1520 101 1440 101C1360 101 1280 101 1200 101C1120 101 1040 101 960 101C880 101 800 101 720 101C640 101 560 101 480 101C400 101 320 101 240 101C160 101 80 101 40 101L0 101Z" fill="#222" stroke-linecap="round" stroke-linejoin="miter"></path></svg>