<svg id="visual" viewBox="0 0 1920 100" width="1920" height="100" xmlns="http://www.w3.org/2000/svg" xmlns:xlink="http://www.w3.org/1999/xlink" version="1.1"><path d="M0 12L45.7 17.8C91.3 23.7 182.7 35.3 274.2 39C365.7 42.7 457.3 38.3 548.8 30.7C640.3 23 731.7 12 823 10.2C914.3 8.3 1005.7 15.7 1097 23C1188.3 30.3 1279.7 37.7 1371.2 45.3C1462.7 53 1554.3 61 1645.8 61.3C1737.3 61.7 1828.7 54.3 1874.3 50.7L1920 47L1920 101L1874.3 101C1828.7 101 1737.3 101 1645.8 101C1554.3 101 1462.7 101 1371.2 101C1279.7 101 1188.3 101 1097 101C1005.7 101 914.3 101 823 101C731.7 101 640.3 101 548.8 101C457.3 101 365.7 101 274.2 101C182.7 101 91.3 101 45.7 101L0 101Z" fill="#F9F6EE" stroke-linecap="round" stroke-linejoin="miter"></path></svg>