<svg id="visual" viewBox="0 0 1920 100" width="1920" height="100" xmlns="http://www.w3.org/2000/svg" xmlns:xlink="http://www.w3.org/1999/xlink" version="1.1"><path d="M0 64L45.7 56.2C91.3 48.3 182.7 32.7 274.2 34.2C365.7 35.7 457.3 54.3 548.8 56.2C640.3 58 731.7 43 823 32.5C914.3 22 1005.7 16 1097 16.8C1188.3 17.7 1279.7 25.3 1371.2 39.8C1462.7 54.3 1554.3 75.7 1645.8 72.3C1737.3 69 1828.7 41 1874.3 27L1920 13L1920 0L1874.3 0C1828.7 0 1737.3 0 1645.8 0C1554.3 0 1462.7 0 1371.2 0C1279.7 0 1188.3 0 1097 0C1005.7 0 914.3 0 823 0C731.7 0 640.3 0 548.8 0C457.3 0 365.7 0 274.2 0C182.7 0 91.3 0 45.7 0L0 0Z" fill="#F9F6EE" stroke-linecap="round" stroke-linejoin="miter"></path></svg>